/* XPM */
static const char *icon[] = {
/* columns rows colors chars-per-pixel */
"48 48 228 2 ",
"   c None",
".  c gray13",
"X  c #222222",
"o  c #232323",
"O  c gray14",
"+  c #252525",
"@  c gray15",
"#  c #272727",
"$  c #282828",
"%  c gray16",
"&  c #2A2A2A",
"*  c gray17",
"=  c #2C2C2C",
"-  c #2D2D2D",
";  c gray18",
":  c #2F2F2F",
">  c gray19",
",  c #313131",
"<  c #313231",
"1  c #323232",
"2  c #323333",
"3  c gray20",
"4  c #333733",
"5  c #343434",
"6  c #343535",
"7  c #353535",
"8  c #353536",
"9  c gray21",
"0  c #363737",
"q  c #373737",
"w  c #343C35",
"e  c #343D35",
"r  c #353E36",
"t  c #373738",
"y  c gray22",
"u  c #383839",
"i  c #393939",
"p  c #39393A",
"a  c #3A3A3A",
"s  c #3A3A3B",
"d  c gray23",
"f  c #3C3C3C",
"g  c #3C3C3D",
"h  c gray24",
"j  c #3D3D3E",
"k  c #3D3E3E",
"l  c #3E3E3E",
"z  c #3E3E3F",
"x  c #3E3F3F",
"c  c #3F3F3F",
"v  c #38493A",
"b  c #3C573F",
"n  c #3F4040",
"m  c #3F6442",
"M  c #404041",
"N  c #404141",
"B  c #414142",
"V  c #414242",
"C  c #424343",
"Z  c #434343",
"A  c #434444",
"S  c #444445",
"D  c #444545",
"F  c #454546",
"G  c #454646",
"H  c #464646",
"J  c #464647",
"K  c #474748",
"L  c #474848",
"P  c #484949",
"I  c #48494A",
"U  c #49494A",
"Y  c #494A4A",
"T  c #494A4B",
"R  c gray29",
"E  c #4A4A4B",
"W  c #4A4B4B",
"Q  c #4B4B4C",
"!  c #4B4C4C",
"~  c #4C4D4D",
"^  c gray30",
"/  c #4D4E4E",
"(  c #4D4E4F",
")  c #4E4F4F",
"_  c #4F5050",
"`  c #4F5051",
"'  c #505051",
"]  c #505152",
"[  c #515252",
"{  c #525353",
"}  c #555556",
"|  c #555757",
" . c #565657",
".. c #565757",
"X. c #565758",
"o. c #565858",
"O. c #575859",
"+. c #58595A",
"@. c #595A5B",
"#. c #5A5B5C",
"$. c #5A5C5C",
"%. c #5C5D5E",
"&. c #437248",
"*. c #467D4C",
"=. c #467E4D",
"-. c #5E5F60",
";. c #5F6161",
":. c #606162",
">. c #626365",
",. c #626464",
"<. c #626465",
"1. c #656667",
"2. c #656768",
"3. c #666868",
"4. c #666869",
"5. c #676869",
"6. c #676969",
"7. c #67696A",
"8. c #6A6B6C",
"9. c #6C6E6E",
"0. c #6D6E6F",
"q. c #6D6F6F",
"w. c #6D6F70",
"e. c #6E7071",
"r. c #6F7071",
"t. c #6F7072",
"y. c #717273",
"u. c #717373",
"i. c #717374",
"p. c #727474",
"a. c #727475",
"s. c #757778",
"d. c #767879",
"f. c #77797A",
"g. c #7A7D7D",
"h. c #4C9153",
"j. c #4D9655",
"k. c #509E58",
"l. c #7C7F80",
"z. c #7D7F80",
"x. c #7F8182",
"c. c #808183",
"v. c #808283",
"b. c #818384",
"n. c #818385",
"m. c #878A8B",
"M. c #888B8C",
"N. c #898B8C",
"B. c #898C8D",
"V. c #8A8C8E",
"C. c #8B8E8F",
"Z. c #8D8F90",
"A. c #8D9091",
"S. c #8D9191",
"D. c #8E9192",
"F. c #8F9293",
"G. c #919395",
"H. c #919495",
"J. c #939697",
"K. c #949798",
"L. c #959799",
"P. c #96989A",
"I. c #97999B",
"U. c #979A9B",
"Y. c #979A9C",
"T. c #989B9D",
"R. c #999C9D",
"E. c #999C9E",
"W. c #9A9D9E",
"Q. c #9A9D9F",
"!. c #9A9E9F",
"~. c #9B9EA0",
"^. c #9C9FA0",
"/. c #9DA0A2",
"(. c #9FA3A5",
"). c #A0A4A5",
"_. c #A1A5A6",
"`. c #A5A8AA",
"'. c #A6A9AA",
"]. c #A6AAAB",
"[. c #A7AAAC",
"{. c #A7ABAC",
"}. c #A7ABAD",
"|. c #A8ACAD",
" X c #A8ACAE",
".X c #A9ACAE",
"XX c #A9ADAE",
"oX c #A9ADAF",
"OX c #AAADAF",
"+X c #AAAEB0",
"@X c #ABAFB0",
"#X c #ACB0B2",
"$X c #AEB2B3",
"%X c #AEB2B4",
"&X c #AFB2B4",
"*X c #AFB3B5",
"=X c #B0B4B6",
"-X c #B1B5B6",
";X c #B1B5B7",
":X c #B2B5B7",
">X c #B2B6B8",
",X c #B3B6B8",
"<X c #B3B7B8",
"1X c #B3B7B9",
"2X c #B4B8BA",
"3X c #B4B9BA",
"4X c #B5B9BB",
"5X c #B5BABB",
"6X c #B6BABC",
"7X c #B7BBBC",
"8X c #B6BBBD",
"9X c #B7BBBD",
"0X c #B8BCBD",
"qX c #BBBFC0",
"wX c #BCBFC0",
"eX c #BCBFC1",
"rX c #BDC0C2",
"tX c #BDC1C2",
"yX c #BEC1C3",
"uX c #BEC2C3",
"iX c #BEC2C4",
"pX c #BEC3C4",
"aX c #BFC3C5",
"sX c #BFC4C6",
"dX c #C0C4C6",
"fX c #C0C5C7",
"gX c #C1C6C8",
"hX c #CAD0D1",
/* pixels */
"                                                                                                ",
"                                                                                                ",
"                                      > > > > > > > > > >                                       ",
"                                > > > > > > > > > > > > > > > >                                 ",
"                            > > > > > : : : : : : : : : : > > > > >                             ",
"                        > > > > > > > > > > > > > > > > > > > > > > > :                         ",
"                      > > > > > > > > > > > > > > > > > > > > > > > > > >                       ",
"                  > > > > > > > > > > > > > > > > > > > > > > > > > > > > > >                   ",
"                > > > : > > > > > > > > > > > > > > > > > > > > > > > > > > > >                 ",
"              > > : > > > > > > > > > > > > > > > > > > > > > > > > > > > > : > :               ",
"              > > > > > > > > > > > > > > > > > > > > > > > > > > > > > > > > > >               ",
"            > > : > > > > 9 f f f f V V V V f f 9 > > > > > > > > > > > > > > : > >             ",
"          > > > > > > > V |.iXsXiXiXiXiXiXiXsXiX~.C > > > > > > > > > > > > > > > > :           ",
"          > > > > > > f 1Xa.f a a f F F f a a f C.].> > > > > > > > > > > > > > > > >           ",
"        > > > > > > > E yX> > > > $./.!.{ > > > E 9X9 > > > > > > > > > > > > > > > > :         ",
"        > > > > > > > E wX> m *.e > > > > > > > F 3Xt > > > > > > > > > > > > > > > > >         ",
"      > > > > > > > > E wXv j.*.&.> > > > a ..4.1.$.9 > > > > > > > > > > > > > > > > > :       ",
"      > > > > > > > > E wXe h.k.b > > > _ |.|.K.Y.*XK.f > > > > > > > > > > > > > > > > :       ",
"      > > > > > > > > E wX> 4 e > > > 9 C.4.2.N.b.@.c.w.> n E a > > > > > > > > > > > > >       ",
"    : > : > > > > > > E wX> > > > > > > a d._.s.c.}.@.4.].3X=X3XU./ > > > > > > > > > > > &     ",
"    : > : > > > > > > E qX> > > > > > > > V t q.E f r.9X8.V f L b.1X{ > > > > > > > > : > :     ",
"    > > : > > > > > > E wX> > > > > > > > > > /.<.E yXE O.].*X!.F q.=X> > > > > > > > > > :     ",
"    : > : > > > > > > E qX> > > > > > > > > > /.>.z.S./ =Xi._ g.}.F =X/ > > > > > > > > > :     ",
"    > > : > > > > > > E wX> > > > > > > > > > /.<.!.8.a.K.d.{ 9 1X/ S.y.> > > > > > > : > :     ",
"    > > : > > > > > > E wX> > > > > > > > > > /.<.U.q.r.U.> > a 1XE J.r.> > > > > > > : > :     ",
"    > > : > > > > > > E wX> > > > > > > > > > /.<.d.K.E $Xr.{ m.^.F 3XL > > > > > > > : > :     ",
"    > > : > > > > > > E wX> > > > > > > > > > /.<.F yX_ / T.|.C.f d.}.> > > > > > > > : > :     ",
"    : > : > > > > > > E qX> > > > > > > > > > /.<.> %.0Xd.Q F { Z.|.K > > > > > > > > : > &     ",
"    : > : > > > > > > E qX> > > > > > > > > 9 |.@.> > @.!.3X9X1XN.F > > > > > > > > > : > &     ",
"      > > > > > > > > E wX> > > > > > > > > ;.iX9 > <.!.z.9 a a K.G._ > > > > > > > > > >       ",
"      > > > > > > > > E qX> > > > > > > > f 1X:.> F 9X4.{ > > 9 -.c.|.> > > > > > > > > :       ",
"      : > > > > > > > E yXa a a a a a a 9 { =Xf 9 F iX$X+X+X+X+X@X3X|.> > > > > > > > > &       ",
"        > > > > > > > E hX*X*X*X*X*X*X*XS.9 !.9X%.V V / / / / / / ! a > > > > > > > > :         ",
"        : > > > > > > E yXV V V V E X...V > a A E ].9 > > > > > > > > > > > > > > > > &         ",
"          > > > > > > F gXa > > > ..J.G./ > > > ..9X9 > > > > > > > > > > > > > > > :           ",
"          : > > > > > > z.dX_././././././././.(.dXy.> > > > > > > > > > > > > > > > &           ",
"            : > > > > > 9 O.1.4.4.4.4.4.4.4.4.1._ 9 > > > > > > > > > > > > > > > :             ",
"            o > > > > > > > > > > > > > > > > > > > > > > > > > > > > > > > > > : o             ",
"              + > > > > > > > > > > > > > > > > > > > > > > > > > > > > > > > > +               ",
"                + > > > > > > > > > > > > > > > > > > > > > > > > > > > > > > +                 ",
"                  + : > > > > > > > > > > > > > > > > > > > > > > > > > > : +                   ",
"                    o : > > > > > > > > > > > > > > > > > > > > > > > > : o                     ",
"                        & : > > > > > > > > > > > > > > > > > > > > : &                         ",
"                          o & : > > > : : : : : : : : : : > > > : & o                           ",
"                                & : : > > > > > > > > > > : : &                                 ",
"                                      + & : : : : : : & +                                       ",
"                                                                                                ",
"                                                                                                "
};
